<svg width="104" height="94" viewBox="0 0 104 94" fill="none" xmlns="http://www.w3.org/2000/svg">
<path d="M44.5157 44.0986C45.2441 44.0853 45.9465 44.3794 46.5622 44.7688C58.6342 52.4034 55.192 56.9008 51.8179 58.2409C51.7817 58.2553 51.7409 58.2622 51.7019 58.2621C44.5278 58.2475 48.3492 62.7785 42.7217 62.5198C37.0775 62.2601 33.1922 66.8583 30.0946 61.4738C26.9969 56.089 22.4551 55.8453 21.7334 52.415C21.0119 48.9847 23.43 40.6806 26.5111 44.1678C28.9487 46.9265 31.3185 47.7083 32.2308 47.7592C32.2512 47.7604 32.2699 47.7628 32.2898 47.7676C34.1797 48.2211 38.3205 48.836 40.005 47.7195C41.8947 46.4669 41.813 44.1481 44.5157 44.0986ZM17.356 14.1376C24.2936 8.34931 27.7394 12.6147 28.6849 15.6855C28.7296 15.8308 28.6539 15.9855 28.5165 16.0504C18.5053 20.7681 16.3576 28.6884 20.3801 31.987C23.0017 34.1369 24.2851 36.8797 24.7822 38.6192C24.9598 39.2407 24.6226 39.8652 24.0817 40.219C17.5137 44.5146 24.3879 49.5365 16.9337 48.8136C9.15669 48.0592 4.53393 41.3284 3.94213 35.0759C3.4926 30.3258 8.41429 28.2371 11.3095 27.6963C11.5235 27.6563 11.6417 27.4183 11.5592 27.2167C10.6253 24.9328 10.6602 19.7242 17.356 14.1376ZM52.8185 34.5829C53.6946 29.036 72.7595 33.3105 70.148 39.8468C67.5366 46.3826 64.123 46.0019 64.277 49.0267C64.4305 52.0514 57.9106 54.3378 55.1536 49.7965C52.6681 45.7025 51.3556 44.745 48.0081 43.0633C47.539 42.8274 47.5332 42.1248 47.97 41.8333C49.7888 40.6206 52.2504 38.1803 52.8185 34.5829ZM28.2841 19.0054C28.5293 18.8717 28.8055 19.1122 28.7243 19.3795C27.9085 22.0638 27.0577 26.8647 28.8714 29.2221C31.3608 32.4574 33.1698 31.0057 36.6485 32.9764C43.0285 36.2026 47.706 35.9132 49.6349 35.2596C49.8417 35.1896 50.0705 35.3271 50.0664 35.5453C50.0045 38.7484 46.7138 41.8304 43.0791 41.2567C41.6647 41.0333 39.942 42.0082 39.3788 43.4841C39.3715 43.5032 39.3667 43.5247 39.3632 43.5449C38.6348 47.8106 28.0143 44.3939 27.7955 39.7911C27.5767 35.1767 26.0165 37.2984 22.0106 30.6647C18.9959 25.6721 24.5721 21.03 28.2841 19.0054ZM36.3467 15.5559C36.5234 15.3779 36.817 15.4925 36.8534 15.7407C37.8177 22.371 42.2854 24.9054 45.3665 26.7731C47.6365 28.1492 47.8544 29.2774 47.6387 29.8013C47.5956 29.906 47.475 29.9485 47.3629 29.9328C40.8845 29.0194 38.8804 34.5319 34.8316 27.4782C31.7882 22.1759 34.355 17.5675 36.3467 15.5559ZM51.2129 20.7481C46.7936 13.7334 49.7698 10.887 53.581 12.752C57.3924 14.6173 55.1467 15.8416 57.9038 17.3824C60.5119 18.84 61.4651 28.09 48.8221 31.8865C48.4727 31.9913 48.2211 31.4229 48.5094 31.1994C51.2824 29.0502 54.0424 25.2392 51.2129 20.7481ZM60.6605 24.9243C61.1797 22.6376 64.01 20.716 65.0885 23.8865C66.1636 27.0475 71.2843 32.4165 66.5848 31.703C66.557 31.6987 66.5262 31.6903 66.5006 31.6788C60.9756 29.1865 55.9018 30.7038 54.0516 31.7771C56.0818 30.2552 60.2452 26.7538 60.6605 24.9243ZM49.1458 21.8423C49.7463 20.0431 52.8588 24.325 49.9962 28.4524C47.134 32.5789 51.521 23.7975 43.7766 23.8378C45.3661 23.7729 48.6657 23.2825 49.1458 21.8423ZM41.0925 21.834C39.1302 20.2606 41.1495 16.4739 44.7257 17.8283C47.9329 19.0429 47.8204 20.3688 47.2717 21.577C47.1804 21.7772 46.9121 21.8075 46.759 21.6493C43.6843 18.4717 42.9926 23.3574 41.0925 21.834ZM42.6841 16.6388C41.8114 15.9496 41.5856 11.6106 45.2891 13.0214C47.8535 13.9983 47.7106 15.9571 47.5917 17.3535C47.5701 17.6064 47.2652 17.7414 47.057 17.5963C44.1292 15.5561 43.5126 17.2923 42.6841 16.6388ZM35.1978 4.16298C38.1982 4.16329 40.8096 6.6293 41.4989 6.26441C42.1868 5.90061 50.7477 5.36765 49.1043 9.16504C49.0948 9.18705 49.087 9.21121 49.0824 9.23474C48.7771 10.8075 47.9366 13.4952 46.9395 12.061C46.9188 12.0312 46.8897 12.001 46.8605 11.9793C38.8629 6.05295 41.0101 18.4966 38.1001 13.7813C35.1845 9.05716 33.3234 16.0273 29.2444 12.8563C25.1658 9.68531 32.1973 4.16288 35.1978 4.16298Z" fill="#FE4531"/>
<path d="M41.1361 69.4852C47.562 67.259 56.0218 68.8277 61.015 70.3075C61.5095 70.454 61.4053 71.1267 60.89 71.1483C54.9795 71.3957 48.5104 72.2281 44.5882 76.3348C41.9838 79.0619 49.5086 74.8245 52.099 73.8612C52.3443 73.77 52.519 74.0117 52.3812 74.2342C52.1835 74.5541 52.9236 75.2346 53.2542 75.0555C56.2197 73.4445 60.1695 72.6405 62.3167 72.7801C62.6551 72.8024 62.7976 73.1826 62.6107 73.4657C61.7162 74.8199 61.7925 75.5879 60.4603 80.0936C58.9263 85.4344 51.9817 87.9694 47.7669 88.7713C47.3444 88.8517 47.0782 88.3633 47.3607 88.0389L48.0023 87.3026C48.235 87.0353 48.0969 86.6164 47.7503 86.5419C40.7396 85.0331 36.4816 84.9938 34.6722 85.2313C34.3472 85.274 34.0398 85.0071 34.0843 84.6825C34.8991 78.7712 39.0431 73.5872 41.3714 71.3876C41.5598 71.2096 41.5753 70.9148 41.4027 70.7215L40.9534 70.2186C40.7368 69.9758 40.8285 69.5918 41.1361 69.4852ZM63.2386 54.3358C67.7616 51.5287 60.899 61.2003 65.1107 65.412C66.9829 67.2843 69.2875 70.0803 73.2972 72.788C73.808 72.2221 74.6305 71.7987 74.9007 71.495C75.0155 72.1837 75.4515 73.5853 75.5208 74.1698C79.0963 76.2125 83.8175 78.0981 90.2708 79.3612C90.4436 78.6783 90.9621 78.2477 91.2796 77.8905C91.3654 78.405 91.8675 79.0961 92.3245 79.7313C94.3253 80.0628 96.4807 80.3387 98.805 80.5428C101.301 84.1304 103.016 85.6902 100.052 85.6903C98.5905 85.6898 91.9027 83.5293 84.0941 80.3309L82.5072 81.7909L81.2034 79.12C73.9237 76.0027 66.1314 72.1433 60.8988 68.3758C54.1912 64.6321 53.2553 62.448 52.1634 61.2001C51.0715 59.9521 54.0359 57.2998 55.4398 58.5477C56.8437 59.7958 60.2117 66.3479 62.3031 65.412C61.1071 62.6561 59.6196 56.5821 63.2386 54.3358ZM91.888 53.7587C92.2429 53.7337 92.5024 54.1109 92.4046 54.453C92.0185 55.7996 91.8361 58.1806 93.1156 60.7772C93.5907 62.0858 93.3032 63.614 92.9642 64.6073C92.8522 64.9353 93.0863 65.3035 93.4329 65.3036H93.8138C94.1515 65.3037 94.3755 65.6474 94.2161 65.9452C92.707 68.7658 88.5182 73.6409 81.2523 75.118C80.9366 75.1819 80.6601 74.9084 80.724 74.5926C81.227 72.1062 82.5153 67.8011 84.7318 64.6073C85.0282 64.1801 84.6247 63.6886 84.2259 64.0223C82.4069 65.5444 80.4031 68.1787 79.6829 72.1053C79.5855 72.6341 78.7643 72.7113 78.6615 72.1835C77.834 67.9303 77.4231 61.8388 79.6019 57.6952C79.7789 57.359 80.2646 57.4002 80.4642 57.7235C80.7239 58.1447 81.0519 58.5114 81.3646 58.4588C81.9989 58.3516 83.045 54.3882 91.888 53.7587Z" fill="#407656"/>
</svg>
